<svg width="35" height="35" fill="none" xmlns="http://www.w3.org/2000/svg"><path fill-rule="evenodd" clip-rule="evenodd" d="M16.683 1.66a1.5 1.5 0 011.634 0l14.584 9.478a1.5 1.5 0 01.682 1.258v10.208a1.5 1.5 0 01-.682 1.258l-14.584 9.48a1.5 1.5 0 01-1.634 0l-14.584-9.48a1.5 1.5 0 01-.682-1.258V12.396a1.5 1.5 0 01.682-1.258L16.683 1.66zM4.417 13.21v8.58L17.5 30.294l13.083-8.504v-8.58L17.5 4.706 4.417 13.21z" fill="#6B7280"/><path fill-rule="evenodd" clip-rule="evenodd" d="M17.5 21.104a1.5 1.5 0 011.5 1.5v9.48a1.5 1.5 0 01-3 0v-9.48a1.5 1.5 0 011.5-1.5z" fill="#6B7280"/><path fill-rule="evenodd" clip-rule="evenodd" d="M1.688 11.536a1.5 1.5 0 012.089-.369L17.5 20.773l13.723-9.606a1.5 1.5 0 011.72 2.458L18.36 23.833a1.5 1.5 0 01-1.72 0L2.056 13.625a1.5 1.5 0 01-.368-2.09z" fill="#6B7280"/><path fill-rule="evenodd" clip-rule="evenodd" d="M16.64 11.167a1.5 1.5 0 011.72 0l14.584 10.208a1.5 1.5 0 11-1.72 2.458L17.5 14.227 3.777 23.833a1.5 1.5 0 11-1.72-2.458L16.64 11.167z" fill="#6B7280"/><path fill-rule="evenodd" clip-rule="evenodd" d="M17.5 1.417a1.5 1.5 0 011.5 1.5v9.479a1.5 1.5 0 01-3 0v-9.48a1.5 1.5 0 011.5-1.5z" fill="#6B7280"/></svg>